<?xml version="1.0" standalone="no"?>
<!DOCTYPE svg PUBLIC "-//W3C//DTD SVG 20010904//EN"
 "http://www.w3.org/TR/2001/REC-SVG-20010904/DTD/svg10.dtd">
<svg version="1.0" xmlns="http://www.w3.org/2000/svg"
 width="444.000000pt" height="444.000000pt" viewBox="0 0 444.000000 444.000000"
 preserveAspectRatio="xMidYMid meet">
<metadata>
Created by potrace 1.11, written by Peter Selinger 2001-2013
</metadata>
<g transform="translate(0.000000,444.000000) scale(0.100000,-0.100000)"
fill="#000000" stroke="none">
<path d="M3190 4011 c-93 -24 -217 -77 -332 -141 -48 -28 -95 -50 -103 -50 -8
0 -47 9 -87 20 -125 35 -274 52 -438 52 -181 0 -322 -19 -484 -65 l-112 -32
-60 37 c-80 50 -224 121 -304 149 -48 17 -89 23 -155 23 -78 1 -96 -2 -135
-24 -129 -73 -180 -253 -180 -640 l0 -181 -62 -102 c-308 -509 -339 -1129 -83
-1664 377 -787 1275 -1176 2105 -911 595 191 1036 674 1176 1288 95 417 23
885 -193 1252 l-50 84 -6 210 c-13 413 -72 599 -217 678 -69 38 -174 44 -280
17z m251 -177 c63 -61 78 -196 59 -552 l-12 -241 40 -64 c249 -394 309 -879
162 -1318 -172 -518 -601 -899 -1148 -1022 -83 -18 -128 -21 -312 -21 -184 0
-229 3 -312 21 -617 138 -1076 603 -1199 1212 -11 53 -22 161 -25 241 -14 331
74 641 260 920 l56 83 -11 191 c-20 346 -3 487 65 531 71 47 224 -10 446 -166
l114 -81 91 31 c339 115 696 117 1024 3 l54 -18 136 94 c273 189 429 236 512
156z"/>
<path d="M1121 3694 c-30 -38 -35 -103 -22 -274 18 -225 9 -213 101 -127 70
66 201 161 290 210 l32 17 -98 72 c-179 130 -260 157 -303 102z"/>
<path d="M3155 3649 c-33 -16 -93 -54 -133 -83 l-73 -53 58 -33 c88 -49 180
-118 256 -189 37 -35 70 -61 73 -58 3 3 11 69 17 147 22 279 -32 353 -198 269z"/>
<path d="M2633 2926 c-139 -32 -270 -123 -318 -221 -28 -55 -28 -175 0 -230
29 -60 112 -137 185 -173 228 -112 557 -60 691 109 149 188 41 416 -239 505
-68 22 -243 27 -319 10z m230 -84 c13 -6 5 -11 -31 -24 -62 -22 -139 -90 -163
-143 -25 -54 -24 -128 2 -181 26 -54 76 -99 152 -134 l59 -28 -57 -7 c-116
-15 -262 30 -339 103 -182 174 -11 420 294 420 36 1 73 -3 83 -6z m196 -78
c38 -32 49 -80 27 -122 -20 -38 -44 -52 -91 -52 -50 0 -74 15 -91 57 -20 46
-10 86 28 118 39 33 87 33 127 -1z m53 -241 c38 -34 12 -93 -41 -93 -34 0 -51
17 -51 51 0 52 54 77 92 42z"/>
<path d="M1233 2835 c-179 -48 -293 -182 -280 -328 10 -112 100 -220 224 -267
86 -34 221 -39 310 -12 166 51 275 189 258 326 -26 204 -280 343 -512 281z
m160 -72 l38 -6 -43 -24 c-110 -62 -159 -153 -137 -255 13 -58 73 -129 138
-162 l46 -24 -47 -7 c-160 -24 -338 102 -338 240 0 107 107 213 237 235 66 11
63 11 106 3z m160 -85 c32 -38 17 -101 -28 -118 -61 -23 -120 39 -96 99 22 52
87 63 124 19z m75 -214 c30 -21 29 -59 -3 -80 -23 -15 -27 -15 -50 0 -29 19
-33 56 -9 80 19 20 34 20 62 0z"/>
<path d="M1685 2119 c-117 -15 -207 -100 -189 -177 20 -83 90 -169 164 -201
l50 -22 0 -52 c0 -153 -172 -216 -286 -105 -46 44 -63 38 -41 -14 45 -108 235
-185 483 -195 210 -9 378 23 539 102 93 46 186 117 172 131 -4 4 -38 -8 -75
-28 -189 -102 -401 -129 -537 -69 -82 36 -158 126 -178 212 -6 22 -2 27 28 38
85 30 184 174 171 247 -18 91 -156 153 -301 133z"/>
<path d="M1380 1835 c-20 -25 -8 -50 25 -50 21 0 31 5 33 18 4 21 -14 47 -33
47 -7 0 -18 -7 -25 -15z"/>
<path d="M2069 1764 c-17 -21 0 -49 32 -49 18 0 25 6 27 24 6 38 -34 55 -59
25z"/>
<path d="M2279 1754 c-17 -21 0 -49 32 -49 18 0 25 6 27 24 6 38 -34 55 -59
25z"/>
<path d="M1480 1735 c-20 -25 -8 -50 25 -50 21 0 31 5 33 18 4 21 -14 47 -33
47 -7 0 -18 -7 -25 -15z"/>
<path d="M1952 1728 c-30 -30 3 -77 40 -57 30 16 16 69 -17 69 -6 0 -16 -5
-23 -12z"/>
<path d="M1323 1714 c-8 -22 10 -49 32 -49 10 0 22 7 28 16 15 24 1 49 -28 49
-15 0 -28 -7 -32 -16z"/>
<path d="M2084 1646 c-11 -28 1 -51 25 -51 32 0 49 28 32 49 -17 20 -50 21
-57 2z"/>
<path d="M2363 1644 c-8 -22 10 -49 32 -49 10 0 22 7 28 16 15 24 1 49 -28 49
-15 0 -28 -7 -32 -16z"/>
<path d="M2229 1634 c-9 -11 -10 -20 -2 -32 15 -24 44 -27 59 -7 28 38 -27 75
-57 39z"/>
</g>
</svg>
